# Blender v3.2.1 OBJ File: 'Escalar.blend'
# www.blender.org
mtllib Dispensador toallas.mtl
o defaultMaterial.002
v 0.130732 -0.245768 -0.076525
v 0.130732 -0.260595 -0.074076
v -0.000000 -0.260595 -0.074076
v -0.000000 -0.245768 -0.076525
v 0.224721 0.254543 -0.034882
v 0.225770 0.261286 -0.055867
v 0.130033 0.264288 -0.054809
v 0.129370 0.257530 -0.033751
v 0.130732 0.246119 -0.076623
v 0.000000 0.246119 -0.076623
v -0.000000 0.264288 -0.054809
v 0.130732 0.266142 -0.073306
v 0.000000 0.266142 -0.073306
v 0.126080 0.203603 0.075964
v 0.126081 0.218848 0.069887
v -0.000000 0.218848 0.069887
v 0.000000 0.203614 0.076316
v 0.226647 -0.263455 -0.051666
v 0.130911 -0.265813 -0.053832
v 0.130732 -0.260595 -0.074076
v 0.225983 -0.258836 -0.072132
v 0.226664 0.246010 -0.073663
v 0.226625 -0.245587 -0.073603
v 0.223008 0.203636 0.076623
v 0.217808 0.217876 0.068365
v -0.000000 -0.265822 -0.053804
v -0.000000 -0.260595 -0.074076
v 0.224727 0.264357 -0.072104
v 0.220015 -0.256903 0.064579
v 0.220300 -0.248198 0.072968
v 0.126087 -0.248259 0.073803
v 0.127646 -0.256373 0.063365
v 0.225983 -0.258836 -0.072132
v 0.130732 0.266142 -0.073306
v 0.000000 0.266142 -0.073306
v 0.224727 0.264357 -0.072104
v 0.222431 0.204771 0.055721
v 0.223008 0.203636 0.076623
v 0.220300 -0.248198 0.072968
v 0.221197 -0.247807 0.059558
v 0.128466 -0.266142 -0.032250
v 0.227093 -0.263567 -0.033698
v 0.226625 -0.245587 -0.073603
v 0.228611 -0.244346 -0.054440
v 0.226647 -0.263455 -0.051666
v 0.225983 -0.258836 -0.072132
v 0.226664 0.246010 -0.073663
v 0.228698 0.239352 -0.054805
v 0.224727 0.264357 -0.072104
v 0.225770 0.261286 -0.055867
v -0.000000 -0.248233 0.073749
v -0.000000 -0.256306 0.063380
v 0.220015 -0.256903 0.064579
v 0.221190 -0.259154 0.048152
v 0.000000 0.257530 -0.033751
v 0.129041 -0.260776 0.046432
v 0.000000 -0.258024 0.048305
v 0.219762 0.226306 0.054895
v 0.217808 0.217876 0.068365
v 0.224721 0.254543 -0.034882
v 0.227573 0.232939 -0.033768
v 0.129041 -0.260776 0.046432
v 0.000000 -0.258024 0.048305
v -0.000000 -0.232437 0.041633
v 0.122093 -0.231546 0.040603
v 0.126565 0.228930 0.056086
v 0.000000 0.228930 0.056086
v 0.227390 -0.244731 -0.032785
v 0.227093 -0.263567 -0.033698
v 0.221190 -0.259154 0.048152
v 0.219762 0.226306 0.054895
v 0.000000 -0.262575 -0.038289
v 0.126516 -0.235544 -0.032357
v 0.000000 -0.236965 -0.032586
v 0.128466 -0.266142 -0.032250
v 0.000000 -0.262575 -0.038289
v -0.130732 -0.245768 -0.076525
v -0.130732 -0.260595 -0.074076
v -0.224721 0.254543 -0.034882
v -0.129370 0.257530 -0.033751
v -0.130033 0.264288 -0.054809
v -0.225770 0.261286 -0.055867
v -0.130732 0.246119 -0.076623
v -0.130732 0.266142 -0.073306
v -0.126080 0.203603 0.075964
v -0.126081 0.218848 0.069887
v -0.226647 -0.263455 -0.051666
v -0.225983 -0.258836 -0.072132
v -0.130732 -0.260595 -0.074076
v -0.130911 -0.265813 -0.053832
v -0.226664 0.246010 -0.073663
v -0.226625 -0.245587 -0.073603
v -0.223008 0.203636 0.076623
v -0.217808 0.217876 0.068365
v -0.224727 0.264357 -0.072104
v -0.220015 -0.256903 0.064579
v -0.127646 -0.256373 0.063365
v -0.126087 -0.248259 0.073803
v -0.220300 -0.248198 0.072968
v -0.225983 -0.258836 -0.072132
v -0.130732 0.266142 -0.073306
v -0.224727 0.264357 -0.072104
v -0.222431 0.204771 0.055721
v -0.221197 -0.247807 0.059558
v -0.220300 -0.248198 0.072968
v -0.223008 0.203636 0.076623
v -0.129248 -0.266004 -0.030721
v -0.227091 -0.263570 -0.033697
v -0.226625 -0.245587 -0.073603
v -0.225983 -0.258836 -0.072132
v -0.226647 -0.263455 -0.051666
v -0.228611 -0.244346 -0.054440
v -0.226664 0.246010 -0.073663
v -0.228698 0.239352 -0.054805
v -0.224727 0.264357 -0.072104
v -0.225770 0.261286 -0.055867
v -0.221190 -0.259154 0.048152
v -0.220015 -0.256903 0.064579
v -0.127011 -0.260952 0.044434
v -0.219762 0.226306 0.054895
v -0.217808 0.217876 0.068365
v -0.224721 0.254543 -0.034882
v -0.227573 0.232939 -0.033768
v -0.127011 -0.260952 0.044434
v -0.123564 -0.230228 0.038296
v -0.126565 0.228930 0.056086
v -0.227390 -0.244731 -0.032785
v -0.227091 -0.263570 -0.033697
v -0.221190 -0.259154 0.048152
v -0.219762 0.226306 0.054895
v -0.127538 -0.234012 -0.030342
v -0.129248 -0.266004 -0.030721
vt 0.488981 0.768275
vt 0.489055 0.640398
vt 0.474351 0.640370
vt 0.474279 0.768277
vt 0.358178 0.273829
vt 0.451699 0.273947
vt 0.452787 0.252304
vt 0.358869 0.252162
vt 0.970169 0.768224
vt 0.970087 0.640294
vt 0.231365 0.233772
vt 0.231385 0.252026
vt 0.359646 0.233940
vt 0.231545 0.398927
vt 0.354766 0.398643
vt 0.354668 0.382601
vt 0.231527 0.382783
vt 0.453503 0.987515
vt 0.453986 0.966950
vt 0.359417 0.969420
vt 0.360216 0.989742
vt 0.970083 0.546402
vt 0.489099 0.546504
vt 0.449660 0.398041
vt 0.444418 0.381973
vt 0.232213 0.969687
vt 0.232236 0.990047
vt 0.451869 0.236073
vt 0.355289 0.853169
vt 0.447167 0.852714
vt 0.447432 0.840866
vt 0.355256 0.840464
vt 0.476040 0.547108
vt 0.990047 0.768222
vt 0.989944 0.640254
vt 0.988114 0.548271
vt 0.740647 0.510697
vt 0.746294 0.067458
vt 0.725808 0.068681
vt 0.727504 0.511026
vt 0.454372 0.949342
vt 0.357564 0.948172
vt 0.869475 0.522128
vt 0.870998 0.509113
vt 0.852142 0.507723
vt 0.849344 0.526495
vt 0.873611 0.028539
vt 0.855056 0.035028
vt 0.872227 0.010437
vt 0.856266 0.013413
vt 0.232052 0.853265
vt 0.232039 0.840675
vt 0.751712 0.521840
vt 0.735640 0.519602
vt 0.231409 0.273708
vt 0.232071 0.869698
vt 0.357044 0.871097
vt 0.747361 0.046199
vt 0.733815 0.053906
vt 0.834404 0.041057
vt 0.835569 0.019723
vt 0.374453 0.078353
vt 0.404283 0.052185
vt 0.242469 0.020600
vt 0.242766 0.059847
vt 0.355129 0.365909
vt 0.231509 0.366059
vt 0.831750 0.526495
vt 0.830948 0.508074
vt 0.448380 0.868953
vt 0.446358 0.366385
vt 0.232162 0.954081
vt 0.242613 0.162028
vt 0.375685 0.139540
vt 0.418271 0.164420
vt 0.242761 0.203901
vt 0.474378 0.896184
vt 0.489083 0.896153
vt 0.009983 0.252786
vt 0.011118 0.274426
vt 0.104639 0.274105
vt 0.103901 0.252439
vt 0.970114 0.896154
vt 0.103084 0.234219
vt 0.108386 0.382869
vt 0.108323 0.398912
vt 0.105003 0.969691
vt 0.010391 0.967495
vt 0.010934 0.988057
vt 0.104255 0.990019
vt 0.489147 0.990047
vt 0.970131 0.990046
vt 0.018633 0.382437
vt 0.013426 0.398517
vt 0.010866 0.236552
vt 0.016622 0.841350
vt 0.016914 0.853200
vt 0.108811 0.853438
vt 0.108815 0.840733
vt 0.476088 0.989445
vt 0.989971 0.896190
vt 0.988161 0.988173
vt 0.705901 0.068214
vt 0.685410 0.067070
vt 0.692755 0.510280
vt 0.705901 0.510558
vt 0.105775 0.946908
vt 0.009953 0.949888
vt 0.581249 0.507734
vt 0.562398 0.509196
vt 0.563970 0.522205
vt 0.584118 0.526495
vt 0.576524 0.035057
vt 0.557946 0.028639
vt 0.575232 0.013447
vt 0.559260 0.010532
vt 0.681733 0.521465
vt 0.697797 0.519166
vt 0.108320 0.873503
vt 0.697836 0.053470
vt 0.684261 0.045815
vt 0.595952 0.019677
vt 0.597199 0.041007
vt 0.080272 0.054411
vt 0.109780 0.081884
vt 0.107889 0.366179
vt 0.602443 0.508004
vt 0.601714 0.526430
vt 0.015740 0.869444
vt 0.016659 0.366853
vt 0.108713 0.138817
vt 0.065896 0.163476
vn 0.0000 -0.0819 -0.9966
vn 0.0143 -0.0758 -0.9970
vn 0.0157 -0.6732 -0.7393
vn 0.0000 -0.6751 -0.7377
vn 0.0164 0.9523 0.3047
vn 0.6623 0.7031 0.2590
vn 0.6724 0.7245 0.1515
vn 0.0146 0.9767 0.2140
vn 0.0000 0.0819 -0.9966
vn 0.0134 0.0727 -0.9973
vn 0.0000 0.7941 -0.6078
vn 0.0000 0.9790 0.2038
vn 0.0168 0.7949 -0.6065
vn 0.0000 0.1908 0.9816
vn 0.0025 0.2063 0.9785
vn 0.0081 0.6354 0.7721
vn 0.0000 0.6168 0.7871
vn 0.5616 -0.5604 -0.6088
vn 0.6686 -0.7374 -0.0963
vn 0.0098 -0.9941 -0.1076
vn 0.0156 -0.6732 -0.7393
vn 0.6899 0.0898 -0.7183
vn 0.6777 -0.0762 -0.7314
vn 0.6647 0.1985 0.7202
vn 0.5194 0.5954 0.6129
vn -0.0000 -0.9962 -0.0871
vn 0.5167 0.6836 -0.5154
vn -0.0029 -0.9029 0.4298
vn 0.5856 -0.7188 0.3747
vn 0.6257 -0.3286 0.7075
vn -0.0003 -0.4273 0.9041
vn 0.5615 -0.5604 -0.6088
vn 0.0000 0.7940 -0.6079
vn 0.5166 0.6837 -0.5154
vn 0.9978 -0.0390 0.0541
vn 0.9938 0.0882 0.0680
vn 0.7012 -0.7114 0.0465
vn -0.2699 -0.9143 0.3019
vn 0.9989 -0.0368 -0.0287
vn 0.6686 -0.7374 -0.0962
vn 0.9979 0.0641 -0.0025
vn 0.5167 0.6836 -0.5155
vn -0.0001 -0.9116 0.4110
vn -0.0000 -0.4413 0.8973
vn 0.6812 -0.7195 0.1354
vn 0.0000 0.9525 0.3045
vn 0.0052 -0.8382 -0.5453
vn -0.2640 -0.9576 -0.1154
vn 0.6303 0.6960 0.3439
vn 0.9948 0.0663 0.0768
vn 0.6623 0.7031 0.2589
vn -0.5102 -0.6938 -0.5082
vn 0.0052 -0.8382 -0.5454
vn 0.0016 -0.7946 -0.6071
vn 0.0142 0.8955 0.4448
vn 0.0000 0.8918 0.4525
vn 0.9984 -0.0244 0.0515
vn 0.6304 0.6960 0.3439
vn 0.0041 -0.7217 0.6922
vn 0.0007 -0.7174 0.6967
vn -0.5404 -0.6329 0.5544
vn -0.2699 -0.9144 0.3018
vn -0.0157 -0.6732 -0.7393
vn -0.0143 -0.0758 -0.9970
vn -0.6724 0.7245 0.1515
vn -0.6623 0.7031 0.2589
vn -0.0167 0.9522 0.3049
vn -0.0146 0.9767 0.2140
vn -0.0134 0.0727 -0.9973
vn -0.0168 0.7949 -0.6065
vn -0.0081 0.6354 0.7721
vn -0.0025 0.2063 0.9785
vn -0.0094 -0.9943 -0.1061
vn -0.6685 -0.7376 -0.0952
vn -0.5616 -0.5604 -0.6088
vn -0.0156 -0.6732 -0.7393
vn -0.6777 -0.0762 -0.7314
vn -0.6899 0.0898 -0.7183
vn -0.5194 0.5954 0.6129
vn -0.6647 0.1985 0.7202
vn -0.5167 0.6836 -0.5154
vn -0.6257 -0.3286 0.7075
vn -0.5857 -0.7198 0.3726
vn 0.0027 -0.9041 0.4273
vn 0.0003 -0.4273 0.9041
vn -0.5615 -0.5604 -0.6088
vn -0.5166 0.6837 -0.5154
vn -0.9938 0.0880 0.0680
vn -0.9978 -0.0390 0.0541
vn 0.2749 -0.9128 0.3019
vn -0.7010 -0.7116 0.0473
vn -0.9989 -0.0368 -0.0287
vn -0.6685 -0.7376 -0.0951
vn -0.9979 0.0641 -0.0025
vn -0.5167 0.6836 -0.5155
vn -0.6809 -0.7200 0.1339
vn 0.2748 -0.9497 -0.1501
vn -0.6303 0.6960 0.3439
vn -0.9948 0.0663 0.0768
vn 0.2748 -0.9497 -0.1500
vn 0.5377 -0.6810 -0.4972
vn -0.0142 0.8955 0.4448
vn -0.9984 -0.0244 0.0515
vn -0.6809 -0.7200 0.1338
vn -0.6304 0.6960 0.3439
vn 0.5616 -0.6211 0.5467
vn 0.2749 -0.9128 0.3020
usemtl Acciaio
s 1
f 4/1/1 1/2/2 2/3/3
f 2/3/3 3/4/4 4/1/1
f 8/5/5 5/6/6 6/7/7
f 6/7/7 7/8/8 8/5/5
f 10/9/9 9/10/10 1/2/2
f 1/2/2 4/1/1 10/9/9
f 13/11/11 11/12/12 7/8/8
f 7/8/8 12/13/13 13/11/11
f 17/14/14 14/15/15 15/16/16
f 15/16/16 16/17/17 17/14/14
f 21/18/18 18/19/19 19/20/20
f 19/20/20 20/21/21 21/18/18
f 9/10/10 22/22/22 23/23/23
f 23/23/23 1/2/2 9/10/10
f 14/15/15 24/24/24 25/25/25
f 25/25/25 15/16/16 14/15/15
f 20/21/21 19/20/20 26/26/26
f 26/26/26 27/27/4 20/21/21
f 12/13/13 7/8/8 6/7/7
f 6/7/7 28/28/27 12/13/13
f 32/29/28 29/30/29 30/31/30
f 30/31/30 31/32/31 32/29/28
f 1/2/2 23/23/23 33/33/32
f 33/33/32 2/3/3 1/2/2
f 31/32/31 30/31/30 24/24/24
f 24/24/24 14/15/15 31/32/31
f 35/34/33 34/35/13 9/10/10
f 9/10/10 10/9/9 35/34/33
f 34/35/13 36/36/34 22/22/22
f 22/22/22 9/10/10 34/35/13
f 40/37/35 37/38/36 38/39/24
f 38/39/24 39/40/30 40/37/35
f 42/41/37 41/42/38 19/20/20
f 19/20/20 18/19/19 42/41/37
f 46/43/32 43/44/23 44/45/39
f 44/45/39 45/46/40 46/43/32
f 43/44/23 47/47/22 48/48/41
f 48/48/41 44/45/39 43/44/23
f 47/47/22 49/49/42 50/50/7
f 50/50/7 48/48/41 47/47/22
f 52/51/43 32/29/28 31/32/31
f 31/32/31 51/52/44 52/51/43
f 54/53/45 40/37/35 39/40/30
f 39/40/30 53/54/29 54/53/45
f 55/55/46 8/5/5 7/8/8
f 7/8/8 11/12/12 55/55/46
f 57/56/47 56/57/48 32/29/28
f 32/29/28 52/51/43 57/56/47
f 51/52/44 31/32/31 14/15/15
f 14/15/15 17/14/14 51/52/44
f 37/38/36 58/58/49 59/59/25
f 59/59/25 38/39/24 37/38/36
f 61/60/50 60/61/51 58/58/49
f 58/58/49 37/38/36 61/60/50
f 65/62/52 62/63/48 63/64/53
f 63/64/53 64/65/54 65/62/52
f 16/17/17 15/16/16 66/66/55
f 66/66/55 67/67/56 16/17/17
f 69/68/37 68/69/57 40/37/35
f 40/37/35 54/53/45 69/68/37
f 29/30/29 32/29/28 56/57/48
f 56/57/48 70/70/45 29/30/29
f 68/69/57 61/60/50 37/38/36
f 37/38/36 40/37/35 68/69/57
f 15/16/16 25/25/25 71/71/58
f 71/71/58 66/66/55 15/16/16
f 44/45/39 48/48/41 61/60/50
f 61/60/50 68/69/57 44/45/39
f 45/46/40 44/45/39 68/69/57
f 68/69/57 69/68/37 45/46/40
f 26/26/26 19/20/20 41/42/38
f 41/42/38 72/72/59 26/26/26
f 48/48/41 50/50/7 60/61/51
f 60/61/51 61/60/50 48/48/41
f 67/67/56 66/66/55 8/5/5
f 8/5/5 55/55/46 67/67/56
f 70/70/45 56/57/48 41/42/38
f 41/42/38 42/41/37 70/70/45
f 66/66/55 71/71/58 5/6/6
f 5/6/6 8/5/5 66/66/55
f 74/73/60 73/74/61 65/62/52
f 65/62/52 64/65/54 74/73/60
f 73/74/61 75/75/62 62/63/48
f 62/63/48 65/62/52 73/74/61
f 74/73/60 76/76/59 75/75/62
f 75/75/62 73/74/61 74/73/60
f 78/77/63 77/78/64 4/1/1
f 4/1/1 3/4/4 78/77/63
f 82/79/65 79/80/66 80/81/67
f 80/81/67 81/82/68 82/79/65
f 77/78/64 83/83/69 10/9/9
f 10/9/9 4/1/1 77/78/64
f 81/82/68 11/12/12 13/11/11
f 13/11/11 84/84/70 81/82/68
f 86/85/71 85/86/72 17/14/14
f 17/14/14 16/17/17 86/85/71
f 90/87/73 87/88/74 88/89/75
f 88/89/75 89/90/76 90/87/73
f 92/91/77 91/92/78 83/83/69
f 83/83/69 77/78/64 92/91/77
f 94/93/79 93/94/80 85/86/72
f 85/86/72 86/85/71 94/93/79
f 26/26/26 90/87/73 89/90/76
f 89/90/76 27/27/4 26/26/26
f 82/79/65 81/82/68 84/84/70
f 84/84/70 95/95/81 82/79/65
f 99/96/82 96/97/83 97/98/84
f 97/98/84 98/99/85 99/96/82
f 100/100/86 92/91/77 77/78/64
f 77/78/64 78/77/63 100/100/86
f 93/94/80 99/96/82 98/99/85
f 98/99/85 85/86/72 93/94/80
f 83/83/69 101/101/70 35/34/33
f 35/34/33 10/9/9 83/83/69
f 91/92/78 102/102/87 101/101/70
f 101/101/70 83/83/69 91/92/78
f 106/103/80 103/104/88 104/105/89
f 104/105/89 105/106/82 106/103/80
f 90/87/73 107/107/90 108/108/91
f 108/108/91 87/88/74 90/87/73
f 112/109/92 109/110/77 110/111/86
f 110/111/86 111/112/93 112/109/92
f 114/113/94 113/114/78 109/110/77
f 109/110/77 112/109/92 114/113/94
f 116/115/65 115/116/95 113/114/78
f 113/114/78 114/113/94 116/115/65
f 98/99/85 97/98/84 52/51/43
f 52/51/43 51/52/44 98/99/85
f 105/106/82 104/105/89 117/117/96
f 117/117/96 118/118/83 105/106/82
f 81/82/68 80/81/67 55/55/46
f 55/55/46 11/12/12 81/82/68
f 97/98/84 119/119/97 57/56/47
f 57/56/47 52/51/43 97/98/84
f 85/86/72 98/99/85 51/52/44
f 51/52/44 17/14/14 85/86/72
f 121/120/79 120/121/98 103/104/88
f 103/104/88 106/103/80 121/120/79
f 120/121/98 122/122/66 123/123/99
f 123/123/99 103/104/88 120/121/98
f 63/64/53 124/124/100 125/125/101
f 125/125/101 64/65/54 63/64/53
f 126/126/102 86/85/71 16/17/17
f 16/17/17 67/67/56 126/126/102
f 104/105/89 127/127/103 128/128/91
f 128/128/91 117/117/96 104/105/89
f 119/119/97 97/98/84 96/97/83
f 96/97/83 129/129/104 119/119/97
f 103/104/88 123/123/99 127/127/103
f 127/127/103 104/105/89 103/104/88
f 130/130/105 94/93/79 86/85/71
f 86/85/71 126/126/102 130/130/105
f 123/123/99 114/113/94 112/109/92
f 112/109/92 127/127/103 123/123/99
f 127/127/103 112/109/92 111/112/93
f 111/112/93 128/128/91 127/127/103
f 107/107/90 90/87/73 26/26/26
f 26/26/26 72/72/59 107/107/90
f 122/122/66 116/115/65 114/113/94
f 114/113/94 123/123/99 122/122/66
f 80/81/67 126/126/102 67/67/56
f 67/67/56 55/55/46 80/81/67
f 107/107/90 119/119/97 129/129/104
f 129/129/104 108/108/91 107/107/90
f 79/80/66 130/130/105 126/126/102
f 126/126/102 80/81/67 79/80/66
f 125/125/101 131/131/106 74/73/60
f 74/73/60 64/65/54 125/125/101
f 124/124/100 132/132/107 131/131/106
f 131/131/106 125/125/101 124/124/100
f 132/132/107 76/76/59 74/73/60
f 74/73/60 131/131/106 132/132/107
o defaultMaterial.003
v -0.125053 -0.243899 -0.029286
v -0.112734 -0.205938 -0.041319
v 0.112526 -0.205938 -0.041319
v 0.124846 -0.243899 -0.029286
v -0.125053 -0.243253 -0.027862
v 0.124846 -0.243253 -0.027862
v 0.112526 -0.205151 -0.039968
v -0.112734 -0.205151 -0.039968
v -0.129278 -0.278579 -0.010079
v -0.132027 -0.312376 0.020836
v -0.132027 -0.311248 0.021919
v -0.129278 -0.277451 -0.008995
v 0.131819 -0.312376 0.020836
v 0.131819 -0.311248 0.021919
v -0.132027 -0.311248 0.021919
v 0.112526 -0.205151 -0.039968
v 0.124846 -0.243253 -0.027862
v -0.112734 -0.205151 -0.039968
v 0.112526 -0.205151 -0.039968
v 0.129071 -0.278579 -0.010079
v 0.129071 -0.277451 -0.008995
v 0.131819 -0.311248 0.021919
v -0.125053 -0.243253 -0.027862
v -0.112734 -0.205151 -0.039968
v -0.132027 -0.311248 0.021919
v 0.131819 -0.311248 0.021919
v 0.129071 -0.277451 -0.008995
v -0.129278 -0.277451 -0.008995
v -0.132027 -0.256320 -0.021160
v -0.132027 -0.248171 -0.068379
v 0.131819 -0.248171 -0.068379
v 0.131819 -0.256320 -0.021160
v -0.132027 -0.254757 -0.021160
v 0.131819 -0.254757 -0.021160
v 0.131819 -0.246738 -0.067752
v -0.132027 -0.246738 -0.067752
v -0.132027 -0.254781 0.023435
v -0.132027 -0.242069 0.064675
v -0.132027 -0.240521 0.064455
v -0.132027 -0.253217 0.023435
v 0.131819 -0.242069 0.064675
v 0.131819 -0.240521 0.064455
v -0.132027 -0.240521 0.064455
v 0.131819 -0.246738 -0.067752
v 0.131819 -0.254757 -0.021160
v -0.132027 -0.246738 -0.067752
v 0.131819 -0.246738 -0.067752
v 0.131819 -0.254781 0.023435
v 0.131819 -0.253217 0.023435
v 0.131819 -0.240521 0.064455
v -0.132027 -0.254757 -0.021160
v -0.132027 -0.246738 -0.067752
v -0.132027 -0.240521 0.064455
v 0.131819 -0.240521 0.064455
v 0.131819 -0.253217 0.023435
v -0.132027 -0.253217 0.023435
vt 0.913611 0.822076
vt 0.012625 0.822077
vt 0.012625 0.976990
vt 0.913611 0.976990
vt 0.007285 0.007285
vt 0.007285 0.165508
vt 0.927522 0.165508
vt 0.927522 0.007285
vt 0.007285 0.667164
vt 0.012625 0.667164
vt 0.012624 0.512250
vt 0.007285 0.512250
vt 0.012715 0.496525
vt 0.913611 0.512250
vt 0.913702 0.496526
vt 0.918950 0.822076
vt 0.918950 0.976990
vt 0.913520 0.992715
vt 0.012534 0.992714
vt 0.918950 0.512250
vt 0.913611 0.667163
vt 0.918950 0.667163
vt 0.007285 0.976990
vt 0.007285 0.822077
vt 0.007285 0.323732
vt 0.007285 0.481955
vt 0.927522 0.481955
vt 0.927522 0.323732
vt 0.913611 0.822076
vt 0.012625 0.822077
vt 0.012625 0.976990
vt 0.913611 0.976990
vt 0.007285 0.007285
vt 0.007285 0.165508
vt 0.927522 0.165508
vt 0.927522 0.007285
vt 0.007285 0.667164
vt 0.012625 0.667164
vt 0.012624 0.512250
vt 0.007285 0.512250
vt 0.012715 0.496525
vt 0.913611 0.512250
vt 0.913702 0.496526
vt 0.918950 0.822076
vt 0.918950 0.976990
vt 0.913520 0.992715
vt 0.012534 0.992714
vt 0.918950 0.512250
vt 0.913611 0.667163
vt 0.918950 0.667163
vt 0.007285 0.976990
vt 0.007285 0.822077
vt 0.007285 0.323732
vt 0.007285 0.481955
vt 0.927522 0.481955
vt 0.927522 0.323732
vn 0.6860 -0.1620 -0.7093
vn -0.6860 -0.1620 -0.7093
vn -0.4821 0.3588 -0.7993
vn 0.4821 0.3588 -0.7993
vn -0.4725 0.8313 0.2927
vn -0.7399 0.4075 0.5353
vn 0.7398 0.4075 0.5353
vn 0.4725 0.8313 0.2927
vn -0.7383 0.4465 0.5056
vn -0.6831 -0.3844 -0.6210
vn -0.5922 -0.8056 -0.0185
vn -0.5999 -0.0003 0.8001
vn -0.5999 -0.0003 0.8000
vn 0.5922 -0.8056 -0.0185
vn 0.5999 -0.0003 0.8000
vn 0.7398 0.4074 0.5354
vn 0.4725 0.8313 0.2928
vn -0.4725 0.8313 0.2928
vn 0.6831 -0.3844 -0.6210
vn 0.7383 0.4465 0.5056
vn -0.7399 0.4074 0.5353
vn 0.5999 -0.0003 0.8001
vn 0.7382 0.4465 0.5056
vn 0.6847 -0.7271 -0.0497
vn -0.6847 -0.7271 -0.0497
vn -0.5657 -0.3908 -0.7261
vn 0.5657 -0.3908 -0.7261
vn -0.5912 0.7101 -0.3824
vn -0.7309 0.6809 0.0463
vn 0.7309 0.6809 0.0463
vn 0.5912 0.7101 -0.3824
vn -0.7382 0.6652 -0.1123
vn -0.6786 -0.7243 0.1219
vn -0.5861 -0.4340 0.6842
vn -0.5695 0.6944 0.4400
vn -0.5694 0.6944 0.4399
vn 0.5861 -0.4340 0.6842
vn 0.5694 0.6944 0.4399
vn 0.5912 0.7102 -0.3824
vn 0.5911 0.7102 -0.3824
vn -0.5911 0.7102 -0.3824
vn 0.5694 0.6944 0.4400
vn 0.6786 -0.7243 0.1219
vn 0.7382 0.6652 -0.1123
vn -0.5912 0.7102 -0.3824
vn -0.5694 0.6944 0.4400
usemtl DefaultMaterial
s 1
f 136/133/108 133/134/109 134/135/110
f 134/135/110 135/136/111 136/133/108
f 140/137/112 137/138/113 138/139/114
f 138/139/114 139/140/115 140/137/112
f 144/141/116 141/142/117 142/143/118
f 142/143/118 143/144/119 144/141/116
f 147/145/120 142/143/118 145/146/121
f 145/146/121 146/147/122 147/145/120
f 149/148/123 136/133/108 135/136/111
f 135/136/111 148/149/115 149/148/123
f 151/150/124 135/136/111 134/135/110
f 134/135/110 150/151/125 151/150/124
f 154/152/122 145/146/121 152/153/126
f 152/153/126 153/154/127 154/152/122
f 153/154/127 152/153/126 136/133/108
f 136/133/108 149/148/123 153/154/127
f 156/155/112 134/135/110 133/134/109
f 133/134/109 155/156/128 156/155/112
f 155/156/128 133/134/109 141/142/117
f 141/142/117 144/141/116 155/156/128
f 160/157/116 157/158/119 158/159/129
f 158/159/129 159/160/130 160/157/116
f 137/138/113 160/157/116 159/160/130
f 159/160/130 138/139/114 137/138/113
f 145/146/121 142/143/118 141/142/117
f 141/142/117 152/153/126 145/146/121
f 152/153/126 141/142/117 133/134/109
f 133/134/109 136/133/108 152/153/126
f 164/161/131 161/162/132 162/163/133
f 162/163/133 163/164/134 164/161/131
f 168/165/135 165/166/136 166/167/137
f 166/167/137 167/168/138 168/165/135
f 172/169/139 169/170/140 170/171/141
f 170/171/141 171/172/142 172/169/139
f 175/173/143 170/171/141 173/174/144
f 173/174/144 174/175/145 175/173/143
f 177/176/137 164/161/131 163/164/134
f 163/164/134 176/177/146 177/176/137
f 179/178/147 163/164/134 162/163/133
f 162/163/133 178/179/148 179/178/147
f 182/180/149 173/174/144 180/181/150
f 180/181/150 181/182/151 182/180/149
f 181/182/151 180/181/150 164/161/131
f 164/161/131 177/176/137 181/182/151
f 184/183/152 162/163/133 161/162/132
f 161/162/132 183/184/136 184/183/152
f 183/184/136 161/162/132 169/170/140
f 169/170/140 172/169/139 183/184/136
f 188/185/139 185/186/153 186/187/149
f 186/187/149 187/188/151 188/185/139
f 165/166/136 188/185/139 187/188/151
f 187/188/151 166/167/137 165/166/136
f 173/174/144 170/171/141 169/170/140
f 169/170/140 180/181/150 173/174/144
f 180/181/150 169/170/140 161/162/132
f 161/162/132 164/161/131 180/181/150
